<svg xmlns="http://www.w3.org/2000/svg" viewBox="0 0 771.61 62.63"><defs><style>.cls-1,.cls-2,.cls-4{fill:#fff;}.cls-2,.cls-3{stroke:#fff;stroke-miterlimit:10;}.cls-2{stroke-width:0.5px;}.cls-3{fill:none;}.cls-4{font-size:54.01px;font-family:TypoStyleThinDemo, Typo Style Thin Demo;letter-spacing:-0.05em;}</style></defs><title>Asset 8</title><g id="Layer_2" data-name="Layer 2"><g id="Layer_1-2" data-name="Layer 1"><circle class="cls-1" cx="8.68" cy="9.76" r="4.09"/><circle class="cls-1" cx="33.23" cy="9.76" r="4.09"/><circle class="cls-1" cx="8.68" cy="31.85" r="4.09"/><circle class="cls-1" cx="57.77" cy="31.85" r="4.09"/><circle class="cls-1" cx="8.68" cy="53.95" r="4.09"/><path class="cls-2" d="M82.32,1.58a8.18,8.18,0,0,0-6.88,12.6l-3.28,3.28L73.6,18.9l3.15-3.15A8.18,8.18,0,1,0,82.32,1.58Z"/><path class="cls-3" d="M67.93,24.57l-1.44-1.45-2.94,2.94a8.18,8.18,0,0,0-11.56,0L40.11,14.18a8.18,8.18,0,1,0-15-5.64H16.76a8.15,8.15,0,1,0,.06,2h8.27a8.12,8.12,0,0,0,1.25,3.6L14.46,26.06A8.18,8.18,0,1,0,7.66,40v5.86a8.18,8.18,0,1,0,2,0V40a8.19,8.19,0,0,0,7.12-7.3H21v-2H16.76a8.14,8.14,0,0,0-1-2.93L27.66,15.75a8.14,8.14,0,0,0,11.13,0l12,12a8,8,0,0,0-1.05,2.93H45.5v2h4.13a8.18,8.18,0,1,0,15.18-5Z"/><path class="cls-1" d="M57.77,4.58A5.19,5.19,0,0,1,63,9.76a5.11,5.11,0,0,1-.82,2.79l-.35.55-.49.45a5.13,5.13,0,0,1-7,0l-.49-.45-.35-.55a5.17,5.17,0,0,1,4.36-8M82.32,26.67A5.18,5.18,0,0,1,83,37l-.65.08L81.67,37a5.13,5.13,0,0,1-2.6-1.11l-.51-.41L78.17,35a5.17,5.17,0,0,1-.31-5.73l.36-.59.44-.44a5.14,5.14,0,0,1,3.66-1.52m-49.09,0a5.14,5.14,0,0,1,3.66,1.52l.44.44.35.59a5.16,5.16,0,0,1-.78,6.29l-.45.45-.59.35a5.18,5.18,0,1,1-2.63-9.64M82.32,48.73l.65.08a5.18,5.18,0,1,1-1.3,0l.65-.08m-24.55,0a5.17,5.17,0,0,1,3.91,1.79l.43.5.3.6a5.18,5.18,0,1,1-9.79,2.82l-.06-.62.1-.68a5.49,5.49,0,0,1,.19-.78l.2-.66.38-.59a5.15,5.15,0,0,1,4.34-2.38m-24.54,0a5.21,5.21,0,0,1,5.11,4.41l.1.68-.06.62a5.18,5.18,0,1,1-5.15-5.71M57.77,1.58a8.18,8.18,0,0,0-6.88,12.6l-3.28,3.28,1.45,1.44,3.15-3.15a8.14,8.14,0,0,0,11.13,0l11.94,12a8.15,8.15,0,0,0,.49,9.05L63.94,48.58a8.15,8.15,0,0,0-13,.94L39,37.63a8.14,8.14,0,0,0,2.39-5.78,8,8,0,0,0-1.15-4.15l3.13-3.13-1.45-1.45L39,26.06a8.2,8.2,0,1,0-1.62,12.83L50,51.49a10,10,0,0,0-.29,1.23H41.31a8.15,8.15,0,1,0,.06,2h8.26A8.18,8.18,0,1,0,65.1,50.32l12.09-12.1A8.22,8.22,0,0,0,81.3,40v5.86a8.18,8.18,0,1,0,2,0V40a8.18,8.18,0,1,0-6.8-13.91L64.66,14.18a8.19,8.19,0,0,0-6.89-12.6Z"/><text class="cls-4" transform="translate(114.28 46.42)">s y n c a r d t e c h n o l o g y</text></g></g></svg>